<?xml version="1.0" encoding="UTF-8"?>
<svg id="Layer_2" data-name="Layer 2" xmlns="http://www.w3.org/2000/svg" viewBox="0 0 939.19 446.65">
  <g id="Layer_1-2" data-name="Layer 1">
    <path d="M809.21,0c-63.45,0-113.88,28.65-126.9,79.55C669.29,28.88,618.87,0,555.42,0c-57.77,0-104.64,23.68-122.4,66.05C415.02,23.68,368.15,0,310.62,0,236.75,0,180.4,39.06,180.4,106.77c0,17.05,3.55,32.2,10.18,45.46-12.78,5.92-30.78,9.23-46.88,9.23-33.62,0-63.69-21.07-63.69-53.51,0-35.28,26.04-58.71,59.42-58.71,10.42,0,18.47,2.13,27.7,5.92,7.1-15.86,17.52-30.07,31.01-41.9C179.22,4.97,157.91,0,129.98,0,56.35,0,0,39.06,0,106.77s56.35,106.3,130.21,106.3c35.99,0,67.47-8.76,92.57-23.91,25.81,16.1,52.56,23.91,87.6,23.91,57.53,0,104.41-23.68,122.4-66.05,17.99,42.14,64.87,66.05,122.4,66.05s106.54-24.86,123.58-68.89v123.11h79.55v-61.08c15.63,4.5,32.67,6.87,50.66,6.87,73.87,0,130.21-39.06,130.21-106.3.24-67.71-56.11-106.77-129.98-106.77ZM310.38,163.83c-35.75,0-50.19-26.99-50.19-57.06s14.68-57.53,50.19-57.53,50.19,26.99,50.19,57.53c.24,30.07-14.44,57.06-50.19,57.06ZM555.42,163.83c-35.75,0-50.19-26.99-50.19-57.06s14.68-57.53,50.19-57.53,50.19,26.99,50.19,57.53c0,30.07-14.68,57.06-50.19,57.06ZM809.21,163.83c-35.75,0-50.43-26.99-50.43-57.06s14.68-57.53,50.43-57.53,50.19,26.99,50.19,57.53-14.68,57.06-50.19,57.06Z"/>
    <path d="M234.6,355.15c-8.86-20.87-31.95-32.53-60.28-32.53-36.38,0-64.13,19.24-64.13,52.59,0,8.4,1.75,15.86,5.01,22.39-6.3,2.91-15.16,4.55-23.09,4.55-16.56,0-31.36-10.38-31.36-26.35,0-17.37,12.83-28.92,29.27-28.92,5.13,0,9.09,1.05,13.64,2.91,3.5-7.81,8.63-14.81,15.27-20.64-9.33-4.08-19.82-6.53-33.58-6.53-36.26,0-64.01,19.24-64.01,52.59s27.75,52.35,64.13,52.35c17.72,0,33.23-4.31,45.59-11.78,12.71,7.93,25.88,11.78,43.14,11.78,28.33,0,51.42-11.66,60.28-32.53M174.2,403.31c-17.61,0-24.72-13.29-24.72-28.1s7.23-28.33,24.72-28.33,24.72,13.29,24.72,28.33c.12,14.81-7.11,28.1-24.72,28.1Z"/>
    <path d="M231.03,326.15h34.89v14.23c5.03-5.94,10.1-10.16,15.22-12.67,5.12-2.51,11.3-3.76,18.53-3.76,7.78,0,13.95,1.38,18.48,4.13s8.25,6.86,11.13,12.3c5.87-6.37,11.22-10.7,16.05-12.99,4.83-2.3,10.79-3.44,17.88-3.44,10.45,0,18.61,3.11,24.48,9.32,5.87,6.21,8.8,15.93,8.8,29.15v37.52c0,13.1-10.62,23.72-23.72,23.72h-13.74v-55.55c0-4.41-.86-7.68-2.56-9.82-2.5-3.37-5.61-5.05-9.33-5.05-4.39,0-7.93,1.59-10.62,4.77-2.68,3.18-4.03,8.3-4.03,15.33v50.32h-37.46v-53.72c0-4.28-.25-7.19-.74-8.72-.8-2.45-2.18-4.42-4.15-5.92-1.97-1.5-4.27-2.25-6.91-2.25-4.3,0-7.83,1.62-10.6,4.87-2.76,3.25-4.15,8.57-4.15,15.98v49.77h-37.46v-97.51Z"/>
    <path d="M395.49,386.02v60.63h39.18v-30.08c7.7,2.22,16.09,3.38,24.95,3.38,36.38,0,64.13-19.24,64.13-52.35.12-33.35-27.63-52.59-64.01-52.59-31.25,0-64.49,16.08-64.47,50.01M459.73,395.69c-17.61,0-24.84-13.29-24.84-28.1s7.23-28.33,24.84-28.33,24.72,13.29,24.72,28.33-7.23,28.1-24.72,28.1Z"/>
    <path d="M541.54,311.39h0c10.87,0,19.7,8.83,19.7,19.7v86.19h-39.4v-86.19c0-10.87,8.83-19.7,19.7-19.7Z"/>
    <circle cx="541.54" cy="281.35" r="19.7"/>
    <path d="M566.6,344.05c0-16.39,16.72-31.18,44.43-31.18,21.58,0,35.34,6.41,43.17,14.08l-20.52,16.93c-5.46-2.93-12.48-9.44-23.49-9.44-7.19,0-11.85,3.21-11.85,7.84,0,15.15,56.28,9.8,56.28,43.48,0,13.36-12.48,31.36-47.19,31.36-26.24,0-44.08-11.09-50.64-16.97l-.38-28.42c5.29,5.17,31.52,26.42,52.71,24.18,9.88-1.04,13.75-3.92,13.75-8.55,0-14.61-56.28-9.8-56.28-43.3Z"/>
  </g>
</svg>