<?xml version="1.0" encoding="UTF-8"?>
<svg id="Layer_2" data-name="Layer 2" xmlns="http://www.w3.org/2000/svg" viewBox="0 0 940.36 385.64">
  <g id="Layer_1-2" data-name="Layer 1">
    <g>
      <path d="M810.38,0c-63.45,0-113.88,28.65-126.9,79.55C670.46,28.88,620.03,0,556.59,0c-57.77,0-104.64,23.68-122.4,66.05C416.19,23.68,369.32,0,311.79,0,237.92,0,181.57,39.06,181.57,106.77c0,17.05,3.55,32.2,10.18,45.46-12.78,5.92-30.78,9.23-46.88,9.23-33.62,0-63.69-21.07-63.69-53.51,0-35.28,26.04-58.71,59.42-58.71,10.42,0,18.47,2.13,27.7,5.92,7.1-15.86,17.52-30.07,31.01-41.9C180.39,4.97,159.08,0,131.14,0c-73.63,0-129.98,39.06-129.98,106.77s56.35,106.3,130.21,106.3c35.99,0,67.47-8.76,92.57-23.91,25.81,16.1,52.56,23.91,87.6,23.91,57.53,0,104.41-23.68,122.4-66.05,17.99,42.14,64.87,66.05,122.4,66.05s106.54-24.86,123.58-68.89v123.11h79.55v-61.08c15.63,4.5,32.67,6.87,50.66,6.87,73.87,0,130.21-39.06,130.21-106.3.24-67.71-56.11-106.77-129.98-106.77ZM311.55,163.83c-35.75,0-50.19-26.99-50.19-57.06s14.68-57.53,50.19-57.53,50.19,26.99,50.19,57.53c.24,30.07-14.44,57.06-50.19,57.06ZM556.59,163.83c-35.75,0-50.19-26.99-50.19-57.06s14.68-57.53,50.19-57.53,50.19,26.99,50.19,57.53c0,30.07-14.68,57.06-50.19,57.06ZM810.38,163.83c-35.75,0-50.43-26.99-50.43-57.06s14.68-57.53,50.43-57.53,50.19,26.99,50.19,57.53-14.68,57.06-50.19,57.06Z"/>
      <g>
        <path d="M107.13,345.01c-1.86,3.9-4.24,5.78-7.13,5.63-1.16-.06-2.25-.37-3.28-.92-3.07,6.24-5.07,13.29-5.76,21.09-.89,1.58-2.26,2.83-4.13,3.75-1.87.92-3.67,1.35-5.38,1.28-1.47-.06-2.9-.56-4.3-1.5,0-2,1.08-5.09,3.2-9.26.56-1.1,1.65-3.12,3.26-6.06,1.5-2.94,2.52-4.97,3.09-6.07,1.12-2.21,1.7-3.69,1.73-4.45-.98-.18-2.48-.21-4.51-.07-2.03.13-3.46.17-4.27.12-4.98-.3-13.16-.05-24.74.68-13.24.88-21.44,2.05-24.4,3.66-1.6.79-5.49,5.21-11.72,13.26-5.07,6.57-8.65,11.41-10.71,14.54-1.17.83-2.32,1.22-3.45,1.14-1.63-.11-2.95-1.05-3.92-2.82-.97-1.77-.96-3.42,0-4.93.48-.75,2.06-2.42,4.72-4.98,2.66-2.57,4.23-4.15,4.76-4.77,10.89-13.78,24.46-28.84,40.11-45.12,43.42-45.57,65.39-67.53,72.12-66.7,7.07.9,5.89,13.68-2.2,38.13-2.83,8.61-9.31,24.96-18.87,48.96.37.65,1.74,1.42,4.1,2.31,1.8.6,2.36,1.63,1.66,3.09ZM93.25,338.74c8.25-21.79,13.56-35.06,15.23-39.68,7.51-20.99,9.92-31.71,6.31-32-4.08-.2-14.26,8.75-31.73,27.01-10.62,11.58-21.47,23.21-32.53,34.87-1.66,1.57-3.87,3.94-6.64,7.12-2.28,2.96-2.39,4.53-.32,4.7.69.06,4.58-.28,11.6-1.04,5.49-.62,18.29-.84,38.08-.99Z"/>
        <path d="M154.88,381.82c-1.15,1.3-2.36,1.94-3.63,1.94-1.27-.01-3.06-.86-5.32-2.55.18-.48.35-.95.53-1.43.4-1.07.99-2.68,1.78-4.82.79-2.14,1.36-3.69,1.72-4.64,14.53-39.48,17.82-59.49,9.33-60.01-2.7-.15-6.54,1.96-11.65,6.35-12.84,10.87-23.65,25.03-31.4,42.35-1.03,2.3-2.21,5.67-3.5,10.11-1.3,4.44-2.44,7.8-3.45,10.1-.8,1.81-2.44,2.69-4.94,2.62-4.77-.13-5.39-4.03-1.85-11.69,6.36-13.79,12.76-27.58,19.2-41.39.51-1.09,1.3-2.67,2.38-4.73,1.07-2.06,1.87-3.64,2.38-4.73.74-1.58,1.63-3.9,2.69-6.97,1.06-3.06,1.94-5.33,2.63-6.79.46-.97,1.64-2.05,3.53-3.23,1.88-1.18,3.18-1.74,3.9-1.69,1.33.1,2.17,1.04,2.54,2.82-3.88,7.86-6.12,12.46-6.72,13.79-.82,1.82-1.56,3.58-2.22,5.28,1.13-.3,3.33-2.23,6.54-5.76,4.06-4.47,7.1-7.51,9.18-9.11,3.96-3.22,7.49-4.72,10.66-4.52,1.23.08,2.85.73,4.88,1.96,4.58,2.73,7.06,6.88,7.44,12.46.59,9.6-1.67,22.05-7.14,37.46-3.18,8.95-6.34,17.9-9.49,26.84Z"/>
        <path d="M222.25,370.51c-.9,4.02-4.8,7.46-11.87,10.34-5.84,2.28-11.32,3.46-16.31,3.52-3.29.04-6.86-.69-10.66-2.19-2.03-.93-5-3.38-8.75-7.42-4.11-4.4-5.77-7.47-5.21-9.13,1.24-3.68,3.95-5.31,8.13-4.91.35,0,.7,0,1.05.01-.91,3.56,1.56,7.47,7.71,11.6,5.54,3.77,10.47,5.6,14.55,5.55,5.29-.06,8.36-1.83,9.21-5.3.52-2.08-1.98-4.92-7.27-8.63-7.27-4.98-11.81-9.09-13.94-12.18-4.34-6.3-4.98-13.59-2.28-21.74,2.03-6.14,5.43-11.94,10.02-17.37,5.35-6.48,10.3-9.59,15.04-9.4,3.44.13,7.02,2.13,10.95,5.92,3.93,3.79,5.95,7.51,5.89,11.21.08,3.13-.37,6.75-1.36,10.9-1.08,4.49-3,9.37-5.85,14.66-1.2.8-2.48,1.21-3.82,1.2-.78,0-1.94-.32-3.45-.97-1.51-.64-2.17-1.32-1.99-2.01-.12.46.83-.81,2.83-3.8,1.4-1.96,2.76-5.54,4.11-10.74,3.18-12.37,1.37-18.65-5.48-18.88-3.6-.12-7.28,2.53-11.18,7.98-3.25,4.4-5.64,8.9-7.06,13.48-1.79,5.76-.4,11.41,4.48,16.84,1.62,1.89,6.35,5.99,14.77,12.06,5.59,4,8.26,7.1,7.74,9.4Z"/>
        <path d="M283.06,383.11c-.14,1.54-1.54,2.38-4.21,2.52-2.91.15-4.56-.88-4.92-3.06-.08-.33.09-2.49.53-6.48.12-1.11.04-1.99-.24-2.64-7.12,4.82-14.73,7.42-22.55,7.7-5.41.19-10.43-1.05-14.91-3.76-5.13-3.03-7.11-6.98-6.1-11.77.98-4.68,5.27-9.29,12.54-13.8,6.64-4.16,12.27-6.25,17.15-6.33,5.49-.09,10.96-.2,16.43-.33.74-.68,1.21-1.86,1.4-3.52.86-7.44.93-13.04.25-16.82-1.12-6.32-4.32-9.5-9.75-9.51-3.91,0-7.92,2.67-12.25,8.09-3.93,4.97-6.4,9.74-7.24,14.27-.04.23-.1.57-.19,1.02-.08.46-.14.74-.16.85-.17.91-.69,1.36-1.57,1.37-1.1,0-2.18-.67-3.22-2.02-1.04-1.36-1.45-2.56-1.25-3.58.64-3.19,2.38-7.2,5.13-12.03,2.74-4.82,5.35-8.46,7.86-10.94,3.12-3.03,6.51-4.52,10.24-4.48,5.75.05,10.71,2.1,15.13,6.09,4.68,4.32,6.89,9.47,6.4,15.55-1.61,17.9-3.12,35.77-4.52,53.61ZM276.42,357.12c.49-4.44-2.72-6.56-9.66-6.4-5.49.13-10.46,1.17-14.97,3.16-5.74,2.58-9.15,6.37-10.09,11.36-.57,3.06.44,5.41,3.1,7.03,2.22,1.4,5.06,2.05,8.5,1.94,5.09-.16,10.16-1.91,15.05-5.19,4.9-3.28,7.54-7.24,8.06-11.9Z"/>
        <path d="M326.32,325.21c-.84.67-2.83,1.28-5.99,1.82-3.48.55-5.5.98-6.03,1.33-.14,1.2-.4,7.21-.72,18.03-.25,8.44-.29,14.11-.13,17.02-.03,1.19.21,3.07.73,5.62.52,2.56.78,4.54.75,5.94-.02.86-.63,1.76-1.83,2.7-1.21.94-2.3,1.44-3.25,1.5-2.39.15-4.23-1.96-5.44-6.34-.8-3.21-1.11-6.29-.96-9.23.76-15.35,1.37-26.69,1.77-34-.59-.53-2.96-.47-7.13.18-3.34.52-4.9-.71-4.64-3.69.37-4.19,4.74-6.16,13.08-6,1.21-9.88,2.4-19.76,3.56-29.63.02-.33-.07-.84-.27-1.55-.2-.71-.29-1.23-.27-1.56.04-.65.45-1.28,1.24-1.88.78-.59,1.69-.83,2.71-.72,3.26.34,4.84,2.24,4.74,5.7-.09,2.71-.55,6.77-1.41,12.19-.87,5.43-1.36,9.44-1.45,12.04-.04,1.3.02,2.55.19,3.73,2.83-.23,5.66-.47,8.48-.71,2.87-.08,4.3,1.06,4.31,3.41,0,1.71-.67,3.08-2.03,4.09Z"/>
        <path d="M358.22,323.85c-.78.67-2.72,1.29-5.82,1.87-3.42.59-5.4,1.05-5.9,1.39-.04,1.17.2,7.03.77,17.56.45,8.22.88,13.74,1.27,16.57.07,1.16.46,2.98,1.2,5.46.73,2.48,1.16,4.4,1.24,5.77.05.84-.48,1.72-1.61,2.66-1.13.93-2.18,1.44-3.12,1.51-2.37.18-4.38-1.84-5.95-6.08-1.06-3.11-1.62-6.1-1.72-8.97-.51-14.96-.83-26.01-1.02-33.13-.63-.5-2.98-.4-7.09.29-3.29.56-4.94-.62-4.92-3.52.03-4.09,4.21-6.08,12.53-6.06.4-9.64.77-19.27,1.11-28.9,0-.32-.14-.82-.4-1.51-.26-.69-.39-1.19-.39-1.51-.02-.64.34-1.25,1.08-1.85.73-.59,1.61-.84,2.64-.74,3.27.29,5,2.11,5.18,5.48.14,2.64.02,6.6-.4,11.89-.42,5.29-.58,9.21-.45,11.74.06,1.27.23,2.48.49,3.63,2.8-.27,5.6-.55,8.39-.83,2.85-.12,4.38.96,4.58,3.25.15,1.67-.41,3-1.68,4.01Z"/>
        <path d="M402.04,272.55c.53,2.29.95,5.23,1.24,8.84.44,4.71.7,7.67.78,8.87.43,3.1,2.31,13.39,5.63,30.86,3.08,15.98,4.81,24.81,5.21,26.5,2.5,10.64,5.37,18.03,8.69,22.13-.55,1.18-1.47,1.85-2.77,1.99-1.18.13-2.62-.22-4.32-1.05-1.7-.83-2.82-1.74-3.39-2.69-.44-1.99-1.47-5-3.04-9.02-5.09,8.16-11.09,12.65-17.43,13.28-7.65.75-13.93-1.2-18.59-5.91-4.01-4.03-6.31-9.66-7.06-16.81-.92-8.71-.12-17.86,2.03-27.34,2.77-12.43,7.11-18.7,13.56-19,2.74-.13,5.7.8,8.95,2.76.67.37,3.35,2.37,8.25,5.92-.4-6.91-3.08-21.89-7.75-45.07.47-.72,1.22-1.09,2.27-1.11,1.65-.04,3.24.63,4.78,2,1.54,1.36,2.54,2.98,2.98,4.87ZM403.38,328.53c-.93-4.4-2.8-8.28-5.53-11.66-3.28-4.06-6.91-5.99-11.01-5.76-5,.28-8.2,5.69-9.94,16.36-1.45,8.06-1.85,15.63-.94,22.63.58,4.53,1.87,8.37,3.93,11.52,2.76,4.12,6.41,5.96,10.83,5.54,7.21-.69,11.78-6.09,13.38-16.05,1.27-7.17.96-14.68-.71-22.59Z"/>
        <path d="M478.66,345.69c1.74,4.09.02,8.2-5.42,12.4-4.87,3.81-10.14,6.11-15.6,6.81-15.67,2.02-25.84-5.41-30.28-22.1-2.01-7.35-2.66-15.4-2.25-24.04.63-11.26,3.43-17.01,8.86-17.42,4.67-.36,10.51,1.58,17.88,5.65,7.37,4.08,12.15,8.27,13.99,12.76,2.38,5.8,1.88,11.13-1.83,16.09-3.7,4.96-9.15,7.9-16.09,8.67-.66.07-2.22-.25-4.67-.98-2.45-.73-4.04-1.06-4.81-.98-1.42.15-2.02.61-1.78,1.39,3.3,11.19,9.37,16.26,18.1,15.17,4.46-.55,8.15-2.32,10.95-5.25,1.72-1.7,3.35-4.24,4.81-7.58,1.17-2.61,2.06-3.95,2.71-4.03,2.52-.31,4.33.83,5.44,3.43ZM457.19,321.1c-1.26-3.31-3.46-6.29-6.54-9-3.08-2.7-6.21-3.93-9.49-3.65-3.97.34-6.41,3.01-7.46,8.07-.88,4.25-.72,8.58.6,12.95.85,2.82,2.54,5.07,5.12,6.76,2.58,1.68,5.46,2.35,8.6,2,4.44-.48,7.53-2.57,9.18-6.21,1.54-3.33,1.5-6.96-.01-10.93Z"/>
        <path d="M504.35,355.18c1.17,2.36.14,3.79-3.09,4.27-5.11.77-11.39-7.21-18.72-23.95-9.1-20.75-18.08-41.56-26.94-62.41-.44-1.02-1.21-2.47-2.28-4.36-1.08-1.89-1.81-3.3-2.21-4.23,1.08-1.39,2.16-2.12,3.27-2.18,1.2-.07,2.6.33,4.22,1.18,1.62.85,2.74,1.91,3.34,3.19.43.92.77,2.12,1.01,3.62.33,1.87.54,3.04.67,3.51,1.82,6.32,5.25,15.12,10.43,26.32,8.38,18.09,12.45,26.79,12.04,26.16,5.61,11.23,10.51,19.57,14.73,25,.13.27.68.85,1.66,1.73.98.88,1.6,1.59,1.87,2.14Z"/>
        <path d="M489.78,280.69c1.69,3.02,1.05,4.68-1.93,4.97-1.76.17-3.72-.3-5.85-1.42-2.13-1.12-3.59-2.51-4.42-4.14-1.55-3.08-.81-4.74,2.22-4.99,1.79-.15,3.64.3,5.57,1.35,1.93,1.05,3.41,2.45,4.4,4.23ZM498.17,301c.88,1.6,1.8,4.05,2.71,7.37.91,3.31,1.79,5.78,2.66,7.39,5.38,9.86,10.79,19.71,16.24,29.54,1.09,1.96,3.12,4.54,6.16,7.73-.06.78-.49,1.24-1.28,1.37-5.61.89-9.53-.78-11.75-5.01-8.68-16.49-17.26-33.02-25.73-49.59.94-.77,1.98-1.21,3.14-1.34,1.16-.12,2.53.06,4.13.54,1.98.44,3.23,1.11,3.72,2Z"/>
        <path d="M593.29,342.19c.09,1.02-.45,1.64-1.62,1.87-1.18.23-3.56.02-7.11-.63-.26-.33-.51-.66-.77-.99-.58-.74-1.45-1.85-2.6-3.34-1.15-1.48-1.98-2.55-2.5-3.21-21.37-27.31-35.74-40.52-43.61-39.5-2.5.34-4.06,2.3-4.82,5.94-2.03,9.03.4,19.91,8.24,32.29,1.05,1.64,2.87,4,5.5,7.05,2.63,3.05,4.49,5.39,5.55,7.03.84,1.29.1,2.14-2.21,2.53-4.42.75-8.31-1.63-11.65-7.13-6.03-9.91-12.03-19.84-17.99-29.78-.47-.79-1.1-1.93-1.89-3.44-.79-1.5-1.42-2.65-1.9-3.44-.68-1.14-1.85-2.78-3.5-4.93-1.65-2.15-2.78-3.76-3.4-4.81-.41-.7-.29-1.59.36-2.65.65-1.06,1.3-1.62,1.96-1.7,1.24-.14,2.75.33,4.57,1.42,3.24,5.68,5.15,9,5.75,9.95.81,1.3,1.65,2.56,2.51,3.75.74-.38,1.04-1.97.86-4.76-.23-3.53-.14-5.96.32-7.32.74-2.7,2.54-4.21,5.48-4.59,1.14-.15,3.12.02,5.95.47,6.35,1.01,12.11,3.23,17.29,6.7,8.83,5.97,17.7,14.16,26.27,24.76,4.97,6.16,9.96,12.31,14.97,18.45Z"/>
        <path d="M616.62,295.71c.48.45,1.11,1.09,1.89,1.93,5.92,7.85,11.2,14.11,16.06,18.67,2.47,2.32,6.42,5.84,11.87,10.54,5.46,4.7,9.49,8.23,12.06,10.61,4.99,4.61,8.05,8.08,9.13,10.44,1.24,2.79.72,5.49-1.62,8.11-2.34,2.62-5.73,4.46-10.09,5.48-5.08,1.18-11.65,1.85-19.58,1.91-10.04.15-16.04-1.1-18.17-3.58-1.85-2.17-1.54-3.51.92-4.03,1.06-.22,2.42.05,4.09.83,2.37,1.1,3.82,1.68,4.32,1.76,1.52.43,4.49.49,8.93.17,4.16-.17,7.15-.46,8.94-.87,6.69-1.51,10.08-4.38,10.05-8.49.05-3.47-2.34-7.45-7.06-11.96-5.03-4.82-9.63-8.53-13.79-11.16-.32,5.87-4.41,9.68-11.92,11.24-2.24.46-5.38.48-9.35.02-3.98-.46-7.24-1.19-9.79-2.18-5.22-1.97-10.14-5.75-14.84-11.3-5.8-6.83-10.36-14.51-14.04-22.85-4.78-10.82-4.41-16.54,1.64-17.46,4.86-.74,13.4,2.14,26.31,8.28,1.44.73,3.48,1.67,6.17,2.79,1.59.07,4.19.45,7.86,1.11ZM614.15,303.59c-1.63-1.59-3.75-2.77-6.32-3.57-3.54-3.14-7.34-5.7-11.36-7.7-5.04-2.45-9.37-3.4-13.09-2.8-2.58.42-2.92,3.21-1.23,8.46,1.32,3.96,2.99,7.6,5.1,10.89,3.21,4.94,6.26,9.09,9.22,12.42,8.62,9.78,16.93,13.87,24.84,12.24,5.99-1.23,7.61-5.76,4.51-13.38-2.64-6.16-6.61-11.64-11.66-16.57Z"/>
      </g>
    </g>
  </g>
</svg>