<?xml version="1.0" encoding="iso-8859-1"?>
<!-- Generator: Adobe Illustrator 24.2.3, SVG Export Plug-In . SVG Version: 6.00 Build 0)  -->
<svg version="1.1" id="Layer_1" xmlns="http://www.w3.org/2000/svg" xmlns:xlink="http://www.w3.org/1999/xlink" x="0px" y="0px"
	 viewBox="0 0 67.294 31.701" style="enable-background:new 0 0 67.294 31.701;" xml:space="preserve">
<g>
	<path d="M57.995,0.175c-4.543-0.016-8.15,2.035-9.109,5.661c-0.939-3.633-4.531-5.71-9.064-5.727
		c-4.127-0.014-7.503,1.668-8.786,4.709c-1.273-3.051-4.636-4.756-8.755-4.771c-5.306-0.019-9.343,2.766-9.36,7.616
		c-0.004,1.224,0.242,2.301,0.717,3.254c-0.061,0.03-0.11,0.056-0.184,0.077c-0.239,0.092-0.5,0.188-0.797,0.265
		c-0.723,0.197-1.553,0.309-2.375,0.306c-2.405-0.009-4.551-1.518-4.544-3.85c0.01-2.528,1.849-4.026,4.255-4.018
		c0.739,0.002,1.384,0.091,1.984,0.254c0,0,0.636-1.684,2.214-2.953c-0.155-0.062-0.311-0.127-0.466-0.186v0.002
		C12.469,0.262,11.006,0.006,9.363,0C4.061-0.018,0.018,2.766,0,7.617c-0.018,4.803,4.006,7.627,9.309,7.646
		c1.404,0.004,2.963-0.191,4.293-0.572c0.506-0.109,1.683-0.518,2.547-1.006c1.609,1.043,3.709,1.615,6.076,1.623
		c4.121,0.016,7.494-1.684,8.79-4.702c1.261,3.028,4.627,4.751,8.752,4.766c4.205,0.015,7.635-1.753,8.853-4.895l-0.031,8.804
		l5.703,0.021l0.016-4.385c1.113,0.341,2.338,0.515,3.633,0.52c5.309,0.018,9.338-2.776,9.354-7.58
		C67.311,3.007,63.301,0.194,57.995,0.175z M22.238,11.782c-2.562-0.009-3.601-1.946-3.594-4.099
		c0.008-2.189,1.06-4.121,3.623-4.112c2.554,0.009,3.584,1.948,3.576,4.138C25.836,9.862,24.791,11.791,22.238,11.782z
		 M39.778,11.846c-2.56-0.01-3.6-1.946-3.594-4.1c0.01-2.189,1.062-4.121,3.623-4.111c2.549,0.008,3.592,1.949,3.586,4.137
		C43.385,9.925,42.327,11.855,39.778,11.846z M57.954,11.91c-2.557-0.009-3.602-1.945-3.594-4.099
		c0.008-2.189,1.066-4.122,3.623-4.112c2.547,0.01,3.596,1.949,3.59,4.139C61.563,9.99,60.502,11.92,57.954,11.91z"/>
</g>
<g>
	<path style="fill:#808080;" d="M8.327,24.057c0.686,0.792,1.017,1.884,1.017,2.964c0,2.016-1.135,4.332-3.71,4.332
		c-0.95,0-1.703-0.276-2.284-0.744l-0.818,1.092H1.674l1.188-1.572c-0.66-0.815-0.963-1.871-0.963-2.951
		c0-2.053,1.108-4.297,3.722-4.297c0.897,0,1.623,0.253,2.191,0.696l0.832-1.092h0.871L8.327,24.057z M7.218,24.357
		c-0.396-0.384-0.95-0.624-1.558-0.624c-2.019,0-2.574,1.979-2.574,3.456c0,0.647,0.132,1.392,0.462,2.028L7.218,24.357z
		 M3.971,29.817c0.383,0.408,0.924,0.696,1.663,0.696c1.94,0,2.521-2.017,2.521-3.433c0-0.695-0.119-1.512-0.489-2.147L3.971,29.817
		z"/>
	<path style="fill:#808080;" d="M11.548,29.433c0.145,0.828,1.214,1.14,2.02,1.14c0.713,0,1.623-0.228,1.623-1.008
		c0-0.648-0.726-0.828-1.307-0.924l-1.096-0.181c-1.03-0.18-1.967-0.611-1.967-1.691c0-1.26,1.28-1.788,2.508-1.788
		c1.201,0,2.323,0.408,2.653,1.536l-0.95,0.18c-0.264-0.672-0.951-0.96-1.716-0.96c-0.607,0-1.425,0.216-1.425,0.888
		c0,0.66,0.607,0.805,1.201,0.889l0.976,0.155c0.489,0.084,0.99,0.168,1.399,0.421c0.528,0.323,0.805,0.827,0.805,1.38
		c0,1.38-1.478,1.884-2.785,1.884c-1.307,0-2.601-0.492-2.944-1.74L11.548,29.433z"/>
	<path style="fill:#808080;" d="M20.959,31.281l-0.99,0.072c-1.465,0-1.901-0.78-1.901-1.992v-3.528H16.88v-0.743h1.188v-1.513
		l1.03-0.096v1.608h1.492v0.743h-1.492v3.685c0,0.708,0.224,1.08,1.069,1.08l0.792-0.061V31.281z"/>
</g>
</svg>
